<mxfile host="65bd71144e">
    <diagram id="MMCy92zpvws9gH46EuOk" name="Page-1">
        <mxGraphModel dx="729" dy="528" grid="1" gridSize="10" guides="1" tooltips="1" connect="1" arrows="1" fold="1" page="1" pageScale="1" pageWidth="3300" pageHeight="4681" math="0" shadow="0">
            <root>
                <mxCell id="0"/>
                <mxCell id="1" parent="0"/>
                <mxCell id="8" style="edgeStyle=none;html=1;exitX=1.001;exitY=0.885;exitDx=0;exitDy=0;entryX=0;entryY=0.75;entryDx=0;entryDy=0;exitPerimeter=0;" edge="1" parent="1" source="2" target="4">
                    <mxGeometry relative="1" as="geometry"/>
                </mxCell>
                <mxCell id="12" style="edgeStyle=none;html=1;exitX=0;exitY=0.786;exitDx=0;exitDy=0;entryX=1.014;entryY=0.833;entryDx=0;entryDy=0;entryPerimeter=0;exitPerimeter=0;" edge="1" parent="1" source="2" target="11">
                    <mxGeometry relative="1" as="geometry">
                        <Array as="points">
                            <mxPoint x="660" y="270"/>
                            <mxPoint x="650" y="270"/>
                            <mxPoint x="570" y="270"/>
                        </Array>
                    </mxGeometry>
                </mxCell>
                <mxCell id="14" value="ram_bank_ex" style="edgeLabel;html=1;align=center;verticalAlign=middle;resizable=0;points=[];rotation=1;" vertex="1" connectable="0" parent="12">
                    <mxGeometry x="0.0103" y="-2" relative="1" as="geometry">
                        <mxPoint x="-9" y="2" as="offset"/>
                    </mxGeometry>
                </mxCell>
                <mxCell id="2" value="MSSD" style="rounded=0;whiteSpace=wrap;html=1;" parent="1" vertex="1">
                    <mxGeometry x="740" y="160" width="80" height="140" as="geometry"/>
                </mxCell>
                <mxCell id="3" value="ZBUS" style="rounded=0;whiteSpace=wrap;html=1;" parent="1" vertex="1">
                    <mxGeometry x="640" y="1280" width="80" height="80" as="geometry"/>
                </mxCell>
                <mxCell id="9" style="edgeStyle=none;html=1;exitX=0;exitY=0.25;exitDx=0;exitDy=0;entryX=1.001;entryY=0.684;entryDx=0;entryDy=0;entryPerimeter=0;" edge="1" parent="1" source="4" target="2">
                    <mxGeometry relative="1" as="geometry">
                        <Array as="points">
                            <mxPoint x="840" y="255"/>
                            <mxPoint x="830" y="255"/>
                        </Array>
                    </mxGeometry>
                </mxCell>
                <mxCell id="4" value="DMEM" style="rounded=0;whiteSpace=wrap;html=1;" parent="1" vertex="1">
                    <mxGeometry x="930" y="240" width="120" height="60" as="geometry"/>
                </mxCell>
                <mxCell id="5" value="CPU" style="rounded=0;whiteSpace=wrap;html=1;" vertex="1" parent="1">
                    <mxGeometry x="160" y="240" width="120" height="60" as="geometry"/>
                </mxCell>
                <mxCell id="13" style="edgeStyle=none;html=1;exitX=1;exitY=0.917;exitDx=0;exitDy=0;entryX=-0.007;entryY=0.892;entryDx=0;entryDy=0;exitPerimeter=0;entryPerimeter=0;" edge="1" parent="1" source="11" target="2">
                    <mxGeometry relative="1" as="geometry">
                        <mxPoint x="640" y="285" as="targetPoint"/>
                        <Array as="points">
                            <mxPoint x="630" y="285"/>
                            <mxPoint x="730" y="285"/>
                        </Array>
                    </mxGeometry>
                </mxCell>
                <mxCell id="15" value="lpkt_m0" style="edgeLabel;html=1;align=center;verticalAlign=middle;resizable=0;points=[];rotation=0;" vertex="1" connectable="0" parent="13">
                    <mxGeometry x="0.1782" relative="1" as="geometry">
                        <mxPoint x="-3" as="offset"/>
                    </mxGeometry>
                </mxCell>
                <mxCell id="16" style="edgeStyle=none;html=1;exitX=1.033;exitY=0.711;exitDx=0;exitDy=0;entryX=-0.012;entryY=0.626;entryDx=0;entryDy=0;entryPerimeter=0;exitPerimeter=0;" edge="1" parent="1" source="11" target="2">
                    <mxGeometry relative="1" as="geometry"/>
                </mxCell>
                <mxCell id="19" value="spkt_m0" style="edgeLabel;html=1;align=center;verticalAlign=middle;resizable=0;points=[];" vertex="1" connectable="0" parent="16">
                    <mxGeometry x="-0.1089" relative="1" as="geometry">
                        <mxPoint as="offset"/>
                    </mxGeometry>
                </mxCell>
                <mxCell id="18" style="edgeStyle=none;html=1;entryX=0;entryY=0.5;entryDx=0;entryDy=0;" edge="1" parent="1" source="11" target="2">
                    <mxGeometry relative="1" as="geometry">
                        <Array as="points">
                            <mxPoint x="510" y="230"/>
                        </Array>
                    </mxGeometry>
                </mxCell>
                <mxCell id="20" value="wrdata" style="edgeLabel;html=1;align=center;verticalAlign=middle;resizable=0;points=[];" vertex="1" connectable="0" parent="18">
                    <mxGeometry x="-0.1623" y="-1" relative="1" as="geometry">
                        <mxPoint as="offset"/>
                    </mxGeometry>
                </mxCell>
                <mxCell id="11" value="LSU" style="rounded=0;whiteSpace=wrap;html=1;" vertex="1" parent="1">
                    <mxGeometry x="440" y="120" width="70" height="180" as="geometry"/>
                </mxCell>
                <mxCell id="21" value="icache_sys" style="rounded=0;whiteSpace=wrap;html=1;" vertex="1" parent="1">
                    <mxGeometry x="560" y="600" width="80" height="320" as="geometry"/>
                </mxCell>
                <mxCell id="22" value="" style="shape=flexArrow;endArrow=classic;html=1;entryX=0;entryY=0.158;entryDx=0;entryDy=0;entryPerimeter=0;" edge="1" parent="1" target="21">
                    <mxGeometry width="50" height="50" relative="1" as="geometry">
                        <mxPoint x="430" y="650" as="sourcePoint"/>
                        <mxPoint x="510" y="650" as="targetPoint"/>
                    </mxGeometry>
                </mxCell>
                <mxCell id="23" value="reqi" style="text;html=1;strokeColor=none;fillColor=none;align=center;verticalAlign=middle;whiteSpace=wrap;rounded=0;" vertex="1" parent="1">
                    <mxGeometry x="430" y="620" width="60" height="30" as="geometry"/>
                </mxCell>
                <mxCell id="24" value="" style="shape=flexArrow;endArrow=classic;html=1;entryX=0;entryY=0.208;entryDx=0;entryDy=0;entryPerimeter=0;" edge="1" parent="1">
                    <mxGeometry width="50" height="50" relative="1" as="geometry">
                        <mxPoint x="430" y="690.08" as="sourcePoint"/>
                        <mxPoint x="560" y="690.0000000000001" as="targetPoint"/>
                    </mxGeometry>
                </mxCell>
                <mxCell id="26" value="" style="shape=flexArrow;endArrow=classic;html=1;entryX=0;entryY=0.208;entryDx=0;entryDy=0;entryPerimeter=0;" edge="1" parent="1">
                    <mxGeometry width="50" height="50" relative="1" as="geometry">
                        <mxPoint x="640" y="650.0799999999999" as="sourcePoint"/>
                        <mxPoint x="770" y="650" as="targetPoint"/>
                    </mxGeometry>
                </mxCell>
                <mxCell id="27" value="dma interface" style="text;html=1;strokeColor=none;fillColor=none;align=center;verticalAlign=middle;whiteSpace=wrap;rounded=0;" vertex="1" parent="1">
                    <mxGeometry x="430" y="660" width="80" height="30" as="geometry"/>
                </mxCell>
                <mxCell id="28" value="" style="shape=flexArrow;endArrow=classic;startArrow=classic;html=1;" edge="1" parent="1">
                    <mxGeometry width="100" height="100" relative="1" as="geometry">
                        <mxPoint x="640" y="810" as="sourcePoint"/>
                        <mxPoint x="780" y="810" as="targetPoint"/>
                    </mxGeometry>
                </mxCell>
                <mxCell id="29" value="icache mem" style="rounded=0;whiteSpace=wrap;html=1;" vertex="1" parent="1">
                    <mxGeometry x="780" y="790" width="80" height="40" as="geometry"/>
                </mxCell>
                <mxCell id="30" value="MSSI" style="rounded=0;whiteSpace=wrap;html=1;" vertex="1" parent="1">
                    <mxGeometry x="780" y="850" width="60" height="40" as="geometry"/>
                </mxCell>
                <mxCell id="31" value="" style="shape=flexArrow;endArrow=classic;startArrow=classic;html=1;" edge="1" parent="1">
                    <mxGeometry width="100" height="100" relative="1" as="geometry">
                        <mxPoint x="640" y="870" as="sourcePoint"/>
                        <mxPoint x="780" y="870" as="targetPoint"/>
                    </mxGeometry>
                </mxCell>
                <mxCell id="32" value="incsram_resp_pkt" style="text;html=1;strokeColor=none;fillColor=none;align=center;verticalAlign=middle;whiteSpace=wrap;rounded=0;" vertex="1" parent="1">
                    <mxGeometry x="680" y="850" width="60" height="10" as="geometry"/>
                </mxCell>
                <mxCell id="33" value="inscram_req_pkt" style="text;html=1;strokeColor=none;fillColor=none;align=center;verticalAlign=middle;whiteSpace=wrap;rounded=0;" vertex="1" parent="1">
                    <mxGeometry x="680" y="880" width="60" height="10" as="geometry"/>
                </mxCell>
                <mxCell id="34" value="mst0" style="text;html=1;strokeColor=none;fillColor=none;align=center;verticalAlign=middle;whiteSpace=wrap;rounded=0;" vertex="1" parent="1">
                    <mxGeometry x="670" y="620" width="60" height="30" as="geometry"/>
                </mxCell>
                <mxCell id="35" value="" style="shape=flexArrow;endArrow=classic;html=1;" edge="1" parent="1">
                    <mxGeometry width="50" height="50" relative="1" as="geometry">
                        <mxPoint x="435" y="1110" as="sourcePoint"/>
                        <mxPoint x="510" y="1110" as="targetPoint"/>
                    </mxGeometry>
                </mxCell>
                <mxCell id="36" value="" style="shape=flexArrow;endArrow=classic;startArrow=classic;html=1;" edge="1" parent="1">
                    <mxGeometry width="100" height="100" relative="1" as="geometry">
                        <mxPoint x="640" y="759.76" as="sourcePoint"/>
                        <mxPoint x="780" y="759.76" as="targetPoint"/>
                    </mxGeometry>
                </mxCell>
                <mxCell id="37" value="zbus" style="rounded=0;whiteSpace=wrap;html=1;" vertex="1" parent="1">
                    <mxGeometry x="780" y="740" width="80" height="40" as="geometry"/>
                </mxCell>
                <mxCell id="38" value="" style="shape=flexArrow;endArrow=classic;html=1;" edge="1" parent="1">
                    <mxGeometry width="50" height="50" relative="1" as="geometry">
                        <mxPoint x="490" y="1680" as="sourcePoint"/>
                        <mxPoint x="600" y="1680" as="targetPoint"/>
                    </mxGeometry>
                </mxCell>
                <mxCell id="39" value="" style="shape=flexArrow;endArrow=classic;html=1;" edge="1" parent="1">
                    <mxGeometry width="50" height="50" relative="1" as="geometry">
                        <mxPoint x="510" y="1620" as="sourcePoint"/>
                        <mxPoint x="620" y="1620" as="targetPoint"/>
                    </mxGeometry>
                </mxCell>
                <mxCell id="40" value="" style="shape=flexArrow;endArrow=classic;startArrow=classic;html=1;" edge="1" parent="1">
                    <mxGeometry width="100" height="100" relative="1" as="geometry">
                        <mxPoint x="520" y="1319.67" as="sourcePoint"/>
                        <mxPoint x="640" y="1319.67" as="targetPoint"/>
                    </mxGeometry>
                </mxCell>
                <mxCell id="41" value="" style="shape=flexArrow;endArrow=classic;startArrow=classic;html=1;" edge="1" parent="1">
                    <mxGeometry width="100" height="100" relative="1" as="geometry">
                        <mxPoint x="720" y="1319.67" as="sourcePoint"/>
                        <mxPoint x="840" y="1319.67" as="targetPoint"/>
                    </mxGeometry>
                </mxCell>
                <mxCell id="42" value="" style="shape=flexArrow;endArrow=classic;startArrow=classic;html=1;exitX=0;exitY=1;exitDx=0;exitDy=0;" edge="1" parent="1">
                    <mxGeometry width="100" height="100" relative="1" as="geometry">
                        <mxPoint x="400" y="735" as="sourcePoint"/>
                        <mxPoint x="560" y="735" as="targetPoint"/>
                    </mxGeometry>
                </mxCell>
                <mxCell id="44" value="zbus" style="text;html=1;strokeColor=none;fillColor=none;align=center;verticalAlign=middle;whiteSpace=wrap;rounded=0;" vertex="1" parent="1">
                    <mxGeometry x="445" y="700" width="60" height="30" as="geometry"/>
                </mxCell>
                <mxCell id="45" value="blcs" style="text;html=1;strokeColor=none;fillColor=none;align=center;verticalAlign=middle;whiteSpace=wrap;rounded=0;" vertex="1" parent="1">
                    <mxGeometry x="380" y="670" width="60" height="30" as="geometry"/>
                </mxCell>
                <mxCell id="46" value="cpu" style="text;html=1;strokeColor=none;fillColor=none;align=center;verticalAlign=middle;whiteSpace=wrap;rounded=0;" vertex="1" parent="1">
                    <mxGeometry x="380" y="630" width="60" height="30" as="geometry"/>
                </mxCell>
            </root>
        </mxGraphModel>
    </diagram>
    <diagram id="2wbnUftw5y5a0c9XX6dI" name="Page-2">
        <mxGraphModel dx="520" dy="377" grid="1" gridSize="10" guides="1" tooltips="1" connect="1" arrows="1" fold="1" page="1" pageScale="1" pageWidth="3300" pageHeight="4681" math="0" shadow="0">
            <root>
                <mxCell id="0"/>
                <mxCell id="1" parent="0"/>
            </root>
        </mxGraphModel>
    </diagram>
</mxfile>